<svg xmlns="http://www.w3.org/2000/svg" xmlns:xlink="http://www.w3.org/1999/xlink" width="40" zoomAndPan="magnify" viewBox="0 0 30 30.000001" height="40" preserveAspectRatio="xMidYMid meet" version="1.0"><defs><clipPath id="6e9110885d"><path d="M 0.484375 0.109375 L 29.515625 0.109375 L 29.515625 29.03125 L 0.484375 29.03125 Z M 0.484375 0.109375 " clip-rule="nonzero"/></clipPath><clipPath id="af92814cde"><path d="M 0.847656 8.921875 L 20.589844 8.921875 L 20.589844 28.660156 L 0.847656 28.660156 Z M 0.847656 8.921875 " clip-rule="nonzero"/></clipPath><clipPath id="e8daa8beca"><path d="M 10.71875 -0.949219 L 30.457031 18.792969 L 10.71875 38.53125 L -9.023438 18.792969 Z M 10.71875 -0.949219 " clip-rule="nonzero"/></clipPath></defs><g clip-path="url(#6e9110885d)"><path fill="#000000" d="M 9.582031 0.0742188 C 9.550781 0.0898438 9.519531 0.109375 9.496094 0.132812 L 0.617188 8.984375 L 0.609375 8.992188 C 0.59375 9.007812 0.578125 9.03125 0.566406 9.050781 C 0.546875 9.089844 0.535156 9.132812 0.535156 9.179688 L 0.535156 28.8125 C 0.535156 28.964844 0.65625 29.085938 0.804688 29.085938 L 20.371094 29.085938 C 20.417969 29.085938 20.460938 29.074219 20.5 29.054688 L 20.503906 29.054688 C 20.523438 29.042969 20.539062 29.03125 20.558594 29.011719 L 20.5625 29.007812 L 29.484375 20.152344 C 29.511719 20.128906 29.53125 20.097656 29.546875 20.066406 C 29.550781 20.054688 29.554688 20.039062 29.558594 20.027344 L 29.5625 19.992188 L 29.566406 19.960938 L 29.566406 0.328125 C 29.566406 0.175781 29.445312 0.0546875 29.292969 0.0546875 L 9.6875 0.0546875 C 9.648438 0.0546875 9.613281 0.0625 9.582031 0.0742188 Z M 9.414062 9.453125 L 1.078125 9.453125 C 1.078125 9.453125 1.078125 25.464844 1.078125 28.15625 L 1.765625 27.46875 C 1.875 27.363281 2.046875 27.363281 2.152344 27.472656 C 2.257812 27.578125 2.257812 27.753906 2.148438 27.859375 L 1.46875 28.539062 C 4.175781 28.539062 20.101562 28.539062 20.101562 28.539062 L 20.101562 9.453125 C 20.101562 9.453125 1.078125 9.453125 1.078125 9.453125 L 9.957031 9.453125 L 9.957031 10.1875 C 9.957031 10.339844 9.835938 10.460938 9.6875 10.460938 C 9.535156 10.460938 9.414062 10.339844 9.414062 10.1875 Z M 29.023438 19.683594 L 29.023438 0.941406 L 20.644531 9.296875 L 20.644531 19.683594 L 21.730469 19.683594 C 21.878906 19.683594 22.003906 19.808594 22.003906 19.960938 C 22.003906 20.109375 21.878906 20.234375 21.730469 20.234375 L 20.644531 20.234375 L 20.644531 28.160156 L 28.632812 20.234375 L 27.164062 20.234375 C 27.015625 20.234375 26.894531 20.109375 26.894531 19.960938 C 26.894531 19.808594 27.015625 19.683594 27.164062 19.683594 Z M 3.3125 25.929688 C 3.042969 26.199219 2.785156 26.457031 2.539062 26.699219 C 2.433594 26.804688 2.433594 26.976562 2.539062 27.085938 C 2.644531 27.195312 2.816406 27.195312 2.921875 27.089844 C 3.164062 26.84375 3.425781 26.585938 3.695312 26.316406 C 3.800781 26.210938 3.800781 26.039062 3.695312 25.929688 C 3.589844 25.824219 3.417969 25.824219 3.3125 25.929688 Z M 4.859375 24.386719 C 4.597656 24.644531 4.339844 24.90625 4.085938 25.15625 C 3.980469 25.265625 3.976562 25.4375 4.082031 25.546875 C 4.1875 25.652344 4.359375 25.652344 4.46875 25.546875 C 4.722656 25.292969 4.980469 25.035156 5.238281 24.777344 C 5.347656 24.671875 5.347656 24.496094 5.242188 24.390625 C 5.136719 24.28125 4.964844 24.28125 4.859375 24.386719 Z M 6.402344 22.847656 C 6.152344 23.097656 5.890625 23.355469 5.628906 23.617188 C 5.523438 23.722656 5.523438 23.898438 5.628906 24.003906 C 5.734375 24.113281 5.90625 24.113281 6.011719 24.007812 C 6.273438 23.746094 6.535156 23.488281 6.785156 23.234375 C 6.890625 23.128906 6.894531 22.957031 6.789062 22.847656 C 6.683594 22.742188 6.507812 22.742188 6.402344 22.847656 Z M 7.949219 21.304688 C 7.710938 21.542969 7.449219 21.804688 7.175781 22.074219 C 7.070312 22.183594 7.066406 22.355469 7.171875 22.464844 C 7.277344 22.570312 7.453125 22.570312 7.558594 22.464844 C 7.832031 22.191406 8.089844 21.933594 8.332031 21.695312 C 8.4375 21.589844 8.4375 21.414062 8.332031 21.308594 C 8.226562 21.199219 8.054688 21.199219 7.949219 21.304688 Z M 9.527344 19.84375 L 9.496094 19.765625 L 8.722656 20.535156 C 8.613281 20.640625 8.613281 20.816406 8.71875 20.921875 C 8.824219 21.03125 8.996094 21.03125 9.105469 20.925781 L 9.796875 20.234375 L 10.859375 20.234375 C 11.011719 20.234375 11.132812 20.109375 11.132812 19.960938 C 11.132812 19.808594 11.011719 19.683594 10.859375 19.683594 L 9.773438 19.683594 C 9.664062 19.683594 9.570312 19.75 9.527344 19.84375 Z M 16.296875 20.234375 L 17.382812 20.234375 C 17.53125 20.234375 17.65625 20.109375 17.65625 19.960938 C 17.65625 19.808594 17.53125 19.683594 17.382812 19.683594 L 16.296875 19.683594 C 16.144531 19.683594 16.023438 19.808594 16.023438 19.960938 C 16.023438 20.109375 16.144531 20.234375 16.296875 20.234375 Z M 18.46875 20.234375 L 19.558594 20.234375 C 19.707031 20.234375 19.828125 20.109375 19.828125 19.960938 C 19.828125 19.808594 19.707031 19.683594 19.558594 19.683594 L 18.46875 19.683594 C 18.320312 19.683594 18.199219 19.808594 18.199219 19.960938 C 18.199219 20.109375 18.320312 20.234375 18.46875 20.234375 Z M 11.949219 20.234375 L 13.035156 20.234375 C 13.183594 20.234375 13.304688 20.109375 13.304688 19.960938 C 13.304688 19.808594 13.183594 19.683594 13.035156 19.683594 L 11.949219 19.683594 C 11.796875 19.683594 11.675781 19.808594 11.675781 19.960938 C 11.675781 20.109375 11.796875 20.234375 11.949219 20.234375 Z M 14.121094 20.234375 L 15.207031 20.234375 C 15.359375 20.234375 15.480469 20.109375 15.480469 19.960938 C 15.480469 19.808594 15.359375 19.683594 15.207031 19.683594 L 14.121094 19.683594 C 13.972656 19.683594 13.851562 19.808594 13.851562 19.960938 C 13.851562 20.109375 13.972656 20.234375 14.121094 20.234375 Z M 22.816406 20.234375 L 23.90625 20.234375 C 24.054688 20.234375 24.175781 20.109375 24.175781 19.960938 C 24.175781 19.808594 24.054688 19.683594 23.90625 19.683594 L 22.816406 19.683594 C 22.667969 19.683594 22.546875 19.808594 22.546875 19.960938 C 22.546875 20.109375 22.667969 20.234375 22.816406 20.234375 Z M 24.992188 20.234375 L 26.078125 20.234375 C 26.230469 20.234375 26.351562 20.109375 26.351562 19.960938 C 26.351562 19.808594 26.230469 19.683594 26.078125 19.683594 L 24.992188 19.683594 C 24.839844 19.683594 24.71875 19.808594 24.71875 19.960938 C 24.71875 20.109375 24.839844 20.234375 24.992188 20.234375 Z M 9.679688 20.214844 C 9.683594 20.222656 9.683594 20.226562 9.6875 20.234375 L 9.707031 20.222656 C 9.699219 20.222656 9.6875 20.21875 9.679688 20.214844 Z M 9.414062 17.855469 L 9.414062 18.953125 C 9.414062 19.105469 9.535156 19.226562 9.6875 19.226562 C 9.835938 19.226562 9.957031 19.105469 9.957031 18.953125 L 9.957031 17.855469 C 9.957031 17.707031 9.835938 17.582031 9.6875 17.582031 C 9.535156 17.582031 9.414062 17.707031 9.414062 17.855469 Z M 9.414062 15.664062 L 9.414062 16.761719 C 9.414062 16.914062 9.535156 17.035156 9.6875 17.035156 C 9.835938 17.035156 9.957031 16.914062 9.957031 16.761719 L 9.957031 15.664062 C 9.957031 15.515625 9.835938 15.390625 9.6875 15.390625 C 9.535156 15.390625 9.414062 15.515625 9.414062 15.664062 Z M 9.414062 13.476562 L 9.414062 14.570312 C 9.414062 14.722656 9.535156 14.84375 9.6875 14.84375 C 9.835938 14.84375 9.957031 14.722656 9.957031 14.570312 L 9.957031 13.476562 C 9.957031 13.324219 9.835938 13.199219 9.6875 13.199219 C 9.535156 13.199219 9.414062 13.324219 9.414062 13.476562 Z M 9.414062 11.285156 L 9.414062 12.378906 C 9.414062 12.53125 9.535156 12.652344 9.6875 12.652344 C 9.835938 12.652344 9.957031 12.53125 9.957031 12.378906 L 9.957031 11.285156 C 9.957031 11.132812 9.835938 11.007812 9.6875 11.007812 C 9.535156 11.007812 9.414062 11.132812 9.414062 11.285156 Z M 1.46875 8.90625 L 20.261719 8.90625 L 28.589844 0.601562 L 9.957031 0.601562 L 9.957031 1.421875 C 9.957031 1.574219 9.835938 1.699219 9.6875 1.699219 C 9.535156 1.699219 9.414062 1.574219 9.414062 1.421875 L 9.414062 0.984375 Z M 9.414062 6.902344 L 9.414062 7.996094 C 9.414062 8.148438 9.535156 8.269531 9.6875 8.269531 C 9.835938 8.269531 9.957031 8.148438 9.957031 7.996094 L 9.957031 6.902344 C 9.957031 6.75 9.835938 6.628906 9.6875 6.628906 C 9.535156 6.628906 9.414062 6.75 9.414062 6.902344 Z M 9.414062 4.710938 L 9.414062 5.804688 C 9.414062 5.957031 9.535156 6.078125 9.6875 6.078125 C 9.835938 6.078125 9.957031 5.957031 9.957031 5.804688 L 9.957031 4.710938 C 9.957031 4.558594 9.835938 4.4375 9.6875 4.4375 C 9.535156 4.4375 9.414062 4.558594 9.414062 4.710938 Z M 9.414062 2.519531 L 9.414062 3.613281 C 9.414062 3.765625 9.535156 3.886719 9.6875 3.886719 C 9.835938 3.886719 9.957031 3.765625 9.957031 3.613281 L 9.957031 2.519531 C 9.957031 2.367188 9.835938 2.246094 9.6875 2.246094 C 9.535156 2.246094 9.414062 2.367188 9.414062 2.519531 Z M 9.414062 2.519531 " fill-opacity="1" fill-rule="evenodd"/></g><g clip-path="url(#af92814cde)"><g clip-path="url(#e8daa8beca)"><path fill="#000000" d="M 10.71875 -0.949219 L 30.457031 18.792969 L 10.71875 38.53125 L -9.023438 18.792969 Z M 10.71875 -0.949219 " fill-opacity="1" fill-rule="nonzero"/></g></g></svg>